<svg width="322" height="72" viewBox="0 0 322 72" fill="none" xmlns="http://www.w3.org/2000/svg">
<path d="M48.0162 26.982C47.9572 25.9055 47.6451 24.858 47.1052 23.9248C46.5654 22.9915 45.813 22.1987 44.9092 21.6108L28.8585 12.3401C27.8985 11.8499 26.8358 11.5942 25.7578 11.5942C24.6798 11.5942 23.6172 11.8499 22.6571 12.3401L6.5938 21.6108C5.69003 22.1987 4.93767 22.9915 4.39782 23.9248C3.85797 24.858 3.54584 25.9055 3.4868 26.982V45.5234C3.54584 46.5999 3.85797 47.6474 4.39782 48.5806C4.93767 49.5139 5.69003 50.3067 6.5938 50.8946L22.6571 60.1653C23.6172 60.6555 24.6798 60.9112 25.7578 60.9112C26.8358 60.9112 27.8985 60.6555 28.8585 60.1653L44.9092 50.8946C45.813 50.3067 46.5654 49.5139 47.1052 48.5806C47.6451 47.6474 47.9572 46.5999 48.0162 45.5234V26.982ZM35.0725 36.6678L31.4624 38.7559C31.2448 38.8616 31.0061 38.9165 30.7642 38.9165C30.5224 38.9165 30.2836 38.8616 30.0661 38.7559L26.5188 36.6678C26.3081 36.5311 26.1339 36.3451 26.0112 36.1259C25.8884 35.9068 25.8209 35.661 25.8144 35.4099V31.2966C25.8176 31.0448 25.8837 30.7978 26.0067 30.5781C26.1298 30.3584 26.3058 30.173 26.5188 30.0387L30.129 27.9506C30.3448 27.8392 30.5842 27.781 30.8271 27.781C31.07 27.781 31.3094 27.8392 31.5253 27.9506L35.1228 30.0387C35.3358 30.173 35.5119 30.3584 35.6349 30.5781C35.758 30.7978 35.8241 31.0448 35.8273 31.2966V35.4602C35.8053 35.7067 35.7256 35.9445 35.5944 36.1544C35.4633 36.3642 35.2845 36.5401 35.0725 36.6678Z" fill="#57AB32"/>
<path d="M65.6016 45.523C65.2663 45.2782 65.0172 44.9334 64.8903 44.5382C64.7633 44.143 64.7649 43.7176 64.8949 43.3234C65.0249 42.9291 65.2766 42.5863 65.6138 42.3441C65.951 42.102 66.3563 41.973 66.7714 41.9757C67.222 41.9501 67.6672 42.0837 68.0293 42.3531C69.8966 43.9333 72.2626 44.8021 74.7087 44.806C77.3 44.806 78.9353 43.5481 78.9353 41.8122V41.7367C78.9353 40.0385 77.9793 39.1203 73.5515 38.0888C68.5199 36.8309 65.6142 35.3718 65.6142 30.9691V30.9062C65.6142 26.8181 69.0231 23.9878 73.7653 23.9878C76.4484 23.9358 79.0829 24.7085 81.3127 26.2017C81.5997 26.3748 81.8359 26.6207 81.9972 26.9145C82.1585 27.2083 82.2391 27.5396 82.2309 27.8747C82.2293 28.1318 82.1768 28.3861 82.0765 28.6228C81.9762 28.8596 81.8301 29.0742 81.6466 29.2542C81.463 29.4342 81.2456 29.5762 81.007 29.6719C80.7684 29.7676 80.5132 29.8152 80.2561 29.8119C79.8701 29.8162 79.4908 29.7116 79.1617 29.51C77.5465 28.3584 75.6227 27.7185 73.6395 27.6734C71.1237 27.6734 69.7526 28.9313 69.7526 30.5037V30.5666C69.7526 32.4157 70.847 33.2333 75.4509 34.3403C80.4825 35.5982 83.0863 37.3718 83.0863 41.3342C83.0863 45.7997 79.5768 48.4539 74.5578 48.4539C71.3333 48.4757 68.1894 47.4468 65.6016 45.523Z" fill="#57AB32"/>
<path d="M92.4451 46.064V26.4157C92.4417 26.1372 92.494 25.8609 92.599 25.603C92.704 25.3451 92.8596 25.1107 93.0565 24.9138C93.2534 24.7169 93.4877 24.5614 93.7456 24.4564C94.0035 24.3514 94.2799 24.299 94.5583 24.3024H108.395C108.89 24.3089 109.363 24.5085 109.713 24.8586C110.063 25.2087 110.263 25.6816 110.269 26.1767C110.269 26.6737 110.072 27.1505 109.72 27.502C109.369 27.8535 108.892 28.0509 108.395 28.0509H96.6464V34.2523H106.898C107.4 34.259 107.878 34.4637 108.23 34.822C108.581 35.1802 108.776 35.6627 108.773 36.1643C108.766 36.6559 108.565 37.1249 108.214 37.469C107.863 37.813 107.39 38.0042 106.898 38.0009H96.6464V44.4035H108.596C109.092 44.4068 109.567 44.6054 109.918 44.9561C110.269 45.3069 110.467 45.7817 110.471 46.2778C110.472 46.5244 110.425 46.7689 110.331 46.997C110.238 47.2252 110.1 47.4325 109.925 47.6068C109.751 47.7812 109.544 47.9192 109.316 48.0128C109.087 48.1064 108.843 48.1537 108.596 48.1521H94.5583C94.282 48.1554 94.0078 48.1038 93.7515 48.0004C93.4952 47.897 93.2621 47.7437 93.0655 47.5494C92.8689 47.3552 92.7129 47.1239 92.6064 46.8689C92.4999 46.6139 92.445 46.3403 92.4451 46.064Z" fill="#57AB32"/>
<path d="M119.704 46.064V26.4157C119.7 26.1372 119.753 25.8609 119.858 25.603C119.963 25.3451 120.118 25.1107 120.315 24.9138C120.512 24.7169 120.746 24.5614 121.004 24.4564C121.262 24.3514 121.538 24.299 121.817 24.3024H135.654C136.149 24.3089 136.622 24.5085 136.972 24.8586C137.322 25.2087 137.521 25.6816 137.528 26.1767C137.528 26.6737 137.33 27.1505 136.979 27.502C136.628 27.8535 136.151 28.0509 135.654 28.0509H123.905V34.2523H134.157C134.658 34.259 135.137 34.4637 135.488 34.822C135.839 35.1802 136.034 35.6627 136.031 36.1643C136.024 36.6559 135.824 37.1249 135.473 37.469C135.121 37.813 134.648 38.0042 134.157 38.0009H123.905V44.4035H135.855C136.351 44.4068 136.826 44.6054 137.177 44.9561C137.527 45.3069 137.726 45.7817 137.729 46.2778C137.731 46.5244 137.684 46.7689 137.59 46.997C137.496 47.2252 137.358 47.4325 137.184 47.6068C137.01 47.7812 136.802 47.9192 136.574 48.0128C136.346 48.1064 136.102 48.1537 135.855 48.1521H121.817C121.541 48.1554 121.266 48.1038 121.01 48.0004C120.754 47.897 120.521 47.7437 120.324 47.5494C120.127 47.3552 119.971 47.1239 119.865 46.8689C119.758 46.6139 119.704 46.3403 119.704 46.064Z" fill="#57AB32"/>
<path d="M146.975 26.4159C146.97 26.138 147.02 25.862 147.124 25.6041C147.228 25.3463 147.382 25.1118 147.578 24.9147C147.774 24.7177 148.007 24.5619 148.265 24.4568C148.522 24.3516 148.798 24.2992 149.075 24.3026H157.604C160.123 24.1614 162.596 25.0204 164.485 26.6926C165.136 27.3779 165.646 28.1852 165.985 29.0681C166.324 29.9509 166.485 30.8921 166.46 31.8374V31.9003C166.512 33.5266 166.001 35.1212 165.013 36.414C164.025 37.7069 162.621 38.6186 161.038 38.9948L165.604 44.756C166.021 45.1859 166.263 45.7552 166.283 46.3535C166.28 46.6128 166.226 46.869 166.124 47.1074C166.021 47.3457 165.873 47.5616 165.687 47.7426C165.502 47.9237 165.282 48.0664 165.041 48.1626C164.8 48.2588 164.543 48.3066 164.283 48.3032C163.877 48.3068 163.477 48.2085 163.119 48.0173C162.761 47.8262 162.456 47.5482 162.233 47.2089L156.447 39.8124H151.164V46.2151C151.123 46.7426 150.884 47.2351 150.496 47.5945C150.108 47.9538 149.598 48.1534 149.069 48.1534C148.54 48.1534 148.031 47.9538 147.642 47.5945C147.254 47.2351 147.016 46.7426 146.975 46.2151V26.4159ZM157.289 36.1268C160.296 36.1268 162.195 34.5544 162.195 32.1393V32.0764C162.195 29.5606 160.359 28.114 157.264 28.114H151.164V36.1268H157.289Z" fill="#57AB32"/>
<path d="M182.498 46.819L174.145 27.1833C173.993 26.8784 173.911 26.543 173.906 26.2021C173.908 25.928 173.964 25.6569 174.072 25.4048C174.179 25.1526 174.336 24.9244 174.533 24.7335C174.729 24.5426 174.962 24.3928 175.218 24.2929C175.473 24.1931 175.745 24.1451 176.02 24.1518C176.493 24.1366 176.959 24.2756 177.347 24.5478C177.735 24.82 178.024 25.2107 178.171 25.6612L185.013 42.8692L191.995 25.5229C192.155 25.1197 192.433 24.7737 192.791 24.5294C193.15 24.2851 193.573 24.1536 194.007 24.1518C194.276 24.1468 194.543 24.1949 194.793 24.2935C195.043 24.3921 195.271 24.5392 195.464 24.7263C195.657 24.9133 195.811 25.1367 195.917 25.3835C196.023 25.6303 196.08 25.8957 196.083 26.1644C196.071 26.4719 196.003 26.7746 195.882 27.0575L187.529 46.819C187.356 47.3225 187.028 47.7582 186.592 48.0633C186.156 48.3685 185.634 48.5274 185.102 48.5172H184.863C184.341 48.5142 183.833 48.3491 183.409 48.0449C182.986 47.7407 182.667 47.3123 182.498 46.819Z" fill="#57AB32"/>
<path d="M205.24 26.24C205.281 25.7126 205.52 25.22 205.908 24.8607C206.296 24.5014 206.806 24.3018 207.335 24.3018C207.864 24.3018 208.373 24.5014 208.762 24.8607C209.15 25.22 209.388 25.7126 209.429 26.24V46.2657C209.388 46.7931 209.15 47.2857 208.762 47.645C208.373 48.0043 207.864 48.2039 207.335 48.2039C206.806 48.2039 206.296 48.0043 205.908 47.645C205.52 47.2857 205.281 46.7931 205.24 46.2657V26.24Z" fill="#57AB32"/>
<path d="M219.618 45.5229C219.284 45.2788 219.035 44.9351 218.908 44.5411C218.781 44.1471 218.781 43.7229 218.91 43.3293C219.038 42.9357 219.288 42.5928 219.623 42.3496C219.958 42.1065 220.361 41.9756 220.775 41.9756C221.226 41.95 221.671 42.0836 222.033 42.353C223.898 43.937 226.266 44.8064 228.713 44.8059C231.304 44.8059 232.939 43.548 232.939 41.8121V41.7366C232.939 40.0385 231.983 39.1202 227.555 38.0887C222.524 36.8308 219.618 35.3717 219.618 30.9691V30.9062C219.618 26.818 223.027 23.9877 227.757 23.9877C230.44 23.9365 233.074 24.7092 235.304 26.2016C235.591 26.3747 235.827 26.6206 235.989 26.9144C236.15 27.2083 236.23 27.5396 236.222 27.8746C236.221 28.1318 236.168 28.386 236.068 28.6228C235.968 28.8595 235.821 29.0741 235.638 29.2541C235.454 29.4342 235.237 29.5761 234.998 29.6718C234.76 29.7676 234.505 29.8151 234.247 29.8118C233.861 29.8162 233.482 29.7115 233.153 29.5099C231.545 28.3631 229.631 27.7235 227.656 27.6734C225.14 27.6734 223.769 28.9313 223.769 30.5036V30.5665C223.769 32.4156 224.864 33.2333 229.467 34.3402C234.499 35.5981 237.09 37.3717 237.09 41.3341C237.09 45.7996 233.581 48.4538 228.574 48.4538C225.35 48.4756 222.206 47.4468 219.618 45.5229Z" fill="#57AB32"/>
<path d="M246.65 26.24C246.691 25.7126 246.93 25.22 247.318 24.8607C247.706 24.5014 248.216 24.3018 248.745 24.3018C249.274 24.3018 249.783 24.5014 250.171 24.8607C250.56 25.22 250.798 25.7126 250.839 26.24V46.2657C250.798 46.7931 250.56 47.2857 250.171 47.645C249.783 48.0043 249.274 48.2039 248.745 48.2039C248.216 48.2039 247.706 48.0043 247.318 47.645C246.93 47.2857 246.691 46.7931 246.65 46.2657V26.24Z" fill="#57AB32"/>
<path d="M260.638 36.3154V36.2525C260.63 32.9364 261.939 29.7527 264.278 27.402C266.617 25.0512 269.794 23.7259 273.11 23.7176C276.426 23.7092 279.61 25.0186 281.961 27.3575C284.311 29.6965 285.637 32.8735 285.645 36.1896V36.2525C285.551 39.4922 284.199 42.568 281.877 44.8291C279.555 47.0902 276.444 48.3591 273.203 48.3673C269.962 48.3755 266.845 47.1223 264.512 44.8729C262.178 42.6236 260.812 39.5546 260.701 36.3154H260.638ZM281.192 36.3154V36.2525C281.232 35.1572 281.053 34.065 280.663 33.0406C280.274 32.0161 279.683 31.0803 278.925 30.2884C278.167 29.4966 277.258 28.865 276.252 28.431C275.245 27.997 274.162 27.7694 273.066 27.7617C271.977 27.7623 270.899 27.9835 269.898 28.4121C268.896 28.8407 267.992 29.4677 267.24 30.2554C266.487 31.043 265.903 31.9749 265.52 32.9948C265.138 34.0147 264.966 35.1015 265.016 36.1896V36.2525C264.975 37.3449 265.155 38.4342 265.544 39.4558C265.933 40.4773 266.523 41.4102 267.28 42.1988C268.037 42.9875 268.945 43.6158 269.95 44.0464C270.955 44.4771 272.036 44.7012 273.129 44.7055C274.217 44.71 275.294 44.4935 276.296 44.0692C277.298 43.645 278.203 43.0217 278.957 42.2373C279.711 41.4528 280.298 40.5235 280.682 39.5055C281.066 38.4876 281.24 37.4023 281.192 36.3154Z" fill="#57AB32"/>
<path d="M295.092 26.3025C295.09 26.0245 295.144 25.749 295.249 25.4918C295.355 25.2347 295.51 25.001 295.707 24.8045C295.904 24.6079 296.137 24.4523 296.394 24.3467C296.651 24.2411 296.927 24.1876 297.205 24.1892H297.645C298.084 24.2016 298.513 24.3231 298.893 24.5428C299.273 24.7624 299.592 25.0732 299.821 25.4471L311.746 40.8815V26.2019C311.746 25.6547 311.964 25.13 312.35 24.7431C312.737 24.3563 313.262 24.1389 313.809 24.1389C314.356 24.1389 314.881 24.3563 315.268 24.7431C315.655 25.13 315.872 25.6547 315.872 26.2019V46.2401C315.879 46.5113 315.831 46.7811 315.732 47.0335C315.632 47.2859 315.483 47.5157 315.293 47.7093C315.103 47.9029 314.876 48.0563 314.625 48.1605C314.375 48.2646 314.106 48.3174 313.834 48.3156H313.658C313.22 48.3032 312.791 48.1817 312.411 47.9621C312.031 47.7425 311.712 47.4317 311.482 47.0577L299.205 31.1705V46.2653C299.165 46.7829 298.93 47.2663 298.549 47.6189C298.168 47.9714 297.668 48.1672 297.148 48.1672C296.629 48.1672 296.129 47.9714 295.748 47.6189C295.367 47.2663 295.132 46.7829 295.092 46.2653V26.3025Z" fill="#57AB32"/>
</svg>
